<svg xmlns="http://www.w3.org/2000/svg" viewBox="0 0 686.2 114.55"><defs><style>.cls-1{fill:#74d988;}.cls-2{fill:#2ac891;}.cls-3{fill:#00b699;}.cls-4{fill:#00a0a5;}.cls-5{fill:#0076a1;}.cls-6{fill:#d1ed8d;}.cls-7{fill:#006093;}.cls-8{fill:#008aaf;}</style></defs><g id="Layer_2" data-name="Layer 2"><g id="Layer_1-2" data-name="Layer 1"><path class="cls-1" d="M172.67,68.53q0,10.5-5.37,16.25t-15.12,5.76q-8.48,0-13.69-5.71t-5.21-15.12V2.26H109.85V74.83q0,14,10.5,26.58t33.17,12.64a47.54,47.54,0,0,0,22.64-5.37,33.72,33.72,0,0,0,15-15.5A44.87,44.87,0,0,0,196,73.65V2.26H172.67Z"/><polygon class="cls-2" points="206.74 25.69 231.86 25.69 231.86 112.54 255.63 112.54 255.63 25.69 280.91 25.69 280.91 2.26 206.74 2.26 206.74 25.69"/><path class="cls-3" d="M340.65,1.09q-22.17,0-38.34,15.91T286.14,57.36q0,24.61,15.58,40.57t39.68,16q24.11,0,40-16t15.88-40.31q0-24.45-16-40.44T340.65,1.09Zm23.14,81.43Q355.26,92,341.4,92.05a28,28,0,0,1-21.83-9.66q-8.65-9.66-8.65-24.36,0-15.54,8.48-25.36t22.34-9.58q13.86.26,22.22,9.58t8.35,24.69Q372.31,73,363.79,82.52Z"/><path class="cls-4" d="M479.6,52.26A40.44,40.44,0,0,0,484,34.63q0-14.87-9.63-23.59T448.2,2.31H411.87V112.59h23.77V69.92h10.72l22.87,42.67h27.52L470.16,62.87A27.17,27.17,0,0,0,479.6,52.26ZM441,50.69h-5.14V22h5.48q8.59,0,13.44,3.66a11.7,11.7,0,0,1,4.85,9.86Q459.58,50.69,441,50.69Z"/><path class="cls-5" d="M546.7,2.3,502.53,112.58h23.79L535,90.91h42.32l8.83,21.67H610L565.8,2.3Zm-3.76,68.62,13-32.5,13.24,32.5Z"/><path class="cls-6" d="M44.64,2.3.47,112.58h23.8l8.64-21.67H75.23l8.83,21.67H108L63.74,2.3ZM40.88,70.92l13-32.5,13.24,32.5Z"/><path class="cls-7" d="M681.91,64.47a30.09,30.09,0,0,0-9.28-10.38,103.19,103.19,0,0,0-16.38-8.35q-14.79-6-14.78-14.11a9.92,9.92,0,0,1,2.85-7.1,9.12,9.12,0,0,1,6.81-3q5.11,0,16.8,6.89l14.78-16.21Q670.27.71,652,.72q-15.47,0-25,9.15t-9.58,23.86a30.26,30.26,0,0,0,3,13,25.38,25.38,0,0,0,7.35,9.66q4.38,3.33,14.79,7.12,18.21,6.59,18.22,15.21c0,2.79-1.31,5.46-4,8s-5.37,3.81-8.23,3.81q-9.15,0-19.65-10.83L612.5,97.24C623.64,108,635.67,114,647.1,114a38.76,38.76,0,0,0,27.08-10.5Q685.66,93,685.65,78.83A28.79,28.79,0,0,0,681.91,64.47Z"/><path class="cls-2" d="M108.45,112.78l-.15-.37-.16-.41L66.56,8.17l-.21-.5L64.14,2.13,64,1.73H44.29l-.17.42L41.91,7.67l-.2.5L16.81,70.35l-.42,1.05L0,112.32l.46.68H24.57l8.66-21.63H75l8.54,21.32L84,113H108.3ZM38.25,74.35h-3l1-2.39Zm-1.2-3h3.13l-1,2.54Zm-2.35,4.5,2,2.51h-3Zm-1.89,2-2-2.52h3Zm2.76-2.52h3l-1,2.52Zm5.68-4H67l1.21,3H40.05ZM56.51,30.56l-1.64-4.09h3.28Zm-1.64-5.09,1.64-4.09,1.64,4.09Zm.9-5.93H52.5l1.63-4.09Zm-.9-4.93h3.28l-1.64,4.08Zm.9,5.93-1.64,4.09L52.5,20.54Zm0,10.87H52.5l1.63-4.09Zm0,1L54.13,36.5,52.5,32.41Zm.74.84,14.86,37.1H67.69l-13-32.51ZM72,71.84l1,2.51H70Zm-2.86,2-1-2.51h3Zm5.71.49,1.94-2.42,1,2.42Zm2.7,1L75.5,78l-1-2.61Zm-3.63-1.43-1-2.57h3.1Zm-7.27-3.57h-25L54.13,39.19Zm6.12,5-2,2.52-1-2.52Zm.85.53,1,2.48h-3Zm4.77,0,1,2.46H76.46Zm.27-2-1-2.56h3Zm2.85-2.07,1,2.51H79.54Zm-9-1.49L57.05,31.91l1.84-4.59,17.23,43ZM58.89,24.63l-1.64-4.09h3.28Zm-1.64-5.09,1.64-4.09,1.63,4.09Zm-2.38-5.93,1.64-4.09,1.64,4.09Zm-1.48,1-1.63,4.08-1.64-4.08Zm-3.27-1,1.64-4.09,1.64,4.09Zm3.27,11.86H50.12l1.64-4.09Zm0,1-1.64,4.09-1.64-4.09Zm-1.64,6.78,1.84,4.59-13,32.51H36.9ZM35.42,71.35l-1,2.53-2-2.53Zm-1.91,3h-3l1-2.49Zm-1.59,4h-3l1-2.52Zm2.06,1h3l-1,2.51Zm1.09,3h-3l1-2.51Zm4.58-7h29l1.2,3H38.45Zm34.77,4-2,2.66L71.3,79.36Zm.8.6,1,2.4H73.37Zm.83-.6H79l-1.93,2.48Zm3.15-4h2.89L80.18,77.8Zm3.15-4H85.2l-1.88,2.42Zm-5.15-1L59.43,26l1.83-4.59,19.61,49ZM61.26,18.69l-1.63-4.08H62.9Zm-1.64-5.08,1.64-4.1,1.65,4.1Zm-.73-.85L57.25,8.67h3.28Zm-4.76,0L52.5,8.67h3.27Zm-4.75,0L47.74,8.67H51ZM51,19.54H47.74l1.64-4.09Zm0,1-1.64,4.09-1.64-4.09Zm-1.64,6.78,1.84,4.59L35.82,70.35H32.15ZM29.66,73.86l-2-2.51h3Zm-.88.49h-3l1-2.51Zm.29,1L28,78l-2-2.6Zm3.15,4L31.16,82l-2-2.64Zm3.14,4L34.29,86l-2.08-2.68Zm2.69-4H70.22l1.21,3H36.84Zm37.82,4-2,2.52-1-2.52Zm4-3.56,1,2.56h-3Zm3.14-4,1,2.6H81Zm3.14-4,1,2.63h-3.1ZM82,70.35,61.8,20l1.84-4.59,22,54.9ZM63.64,12.76,62,8.67h3.28ZM57.25,7.67l1.64-4.09,1.64,4.09Zm-4.75,0,1.63-4.09,1.64,4.09Zm-4.76,0,1.64-4.09L51,7.67Zm.9,5.94H45.37L47,9.51Zm0,1L47,18.69,45.37,14.6ZM47,21.38,48.84,26,31.07,70.35H27.39ZM24.89,73.9l-2-2.55h3Zm-.91.45H21l1-2.51Zm3.1,4H24.19l1-2.47Zm3.1,4H27.34l1-2.42Zm3.09,4H30.48l1-2.38Zm3.17-3H71.83l1.2,3H35.24Zm40.33.47,1,2.54h-3Zm1.9,2.07-1-2.54h3Zm3.16-4-1-2.56h3.06ZM84,75.35H87L85,77.94ZM88.15,74,87.1,71.35h3.12ZM86.7,70.35,64.18,14.1,66,9.51,90.38,70.35ZM62,7.67l1.64-4.09,1.64,4.09Zm-.74-.84-1.64-4.1h3.29Zm-4.75,0-1.64-4.1h3.28Zm-4.75,0-1.64-4.1H53.4ZM47,6.83l-1.64-4.1h3.29Zm-.74.84H43l1.64-4.09Zm0,1-1.64,4.09L43,8.67Zm-1.64,6.78L46.47,20,26.32,70.35H22.64ZM20,74.25l-2.37-2.9h3.53Zm4.31,1.1-1.12,2.81L20.9,75.35Zm3.15,4-1.09,2.71-2.21-2.71Zm3.15,4L29.56,86l-2.14-2.63Zm3.15,4-1,2.53-2.07-2.53Zm1.08,0H73.43l1.2,3h-41Zm40.68,2.52-1-2.52h3Zm6-6L92.8,112H89.13l-10-25Zm.72-.9,2.44-3.08L97.56,112H93.88Zm3.16-4,2.44-3.08L102.31,112H98.64Zm3.16-4L91,71.94l16,40.06h-3.67ZM42.25,9.52l1.84,4.58L21.56,70.35H17.89ZM17.11,72.29,19.34,75v.32h.22L4.88,112H1.2ZM20.3,76.2,22.61,79v.33h.1L9.63,112H6Zm3.18,3.91,2.47,3L14.39,112H10.71ZM26.67,84l2.46,3-10,25H15.46Zm3.19,3.91,2.46,3-8.43,21H20.22Zm46.08,3,2.45-3.08L88.05,112H84.38Z"/><path class="cls-7" d="M610.51,112.78l-.31-.78L568.61,8.17l-.2-.5L566.2,2.13l-.11-.4H546.3l-.12.42L544,7.67l-.2.5-24.9,62.18-.42,1.05-16.39,40.92.46.68h24.11l.16-.4,8.5-21.23h41.8l8.54,21.32.46.31h24.27ZM540.3,74.35h-2.95l1-2.39Zm-1.19-3h3.12l-1,2.54Zm-2.36,4.5,2,2.51h-3Zm-1.88,2-2-2.52h3Zm2.76-2.52h3l-1,2.52Zm5.68-4h25.76l1.21,3H542.11Zm15.26-40.79-1.64-4.09h3.28Zm-1.64-5.09,1.64-4.09,1.64,4.09Zm.9-5.93h-3.28l1.64-4.09Zm-.9-4.93h3.27l-1.63,4.08Zm.9,5.93-1.64,4.09-1.64-4.09Zm0,10.87h-3.28l1.64-4.09Zm0,1-1.64,4.09-1.64-4.09Zm.74.84,14.85,37.1h-3.67l-13-32.51ZM574,71.84l1,2.51h-3Zm-2.86,2-1-2.51h3Zm5.71.49,1.94-2.42,1,2.42Zm2.7,1-2,2.61-1-2.61Zm-3.64-1.43-1-2.57H578Zm-7.26-3.57h-25l12.48-31.16Zm6.12,5-2,2.52-1-2.52Zm.85.53,1,2.48h-3Zm4.76,0,1,2.46h-2.88Zm.28-2-1-2.56h3Zm2.85-2.06,1,2.5H581.6Zm-9-1.5L559.11,31.91,561,27.32l17.23,43ZM560.94,24.63l-1.63-4.09h3.27Zm-1.63-5.09,1.63-4.09,1.64,4.09Zm-2.38-5.93,1.64-4.1,1.64,4.1Zm-1.48,1-1.63,4.08-1.64-4.08Zm-3.27-1,1.64-4.1,1.63,4.1Zm3.27,11.86h-3.27l1.64-4.09Zm0,1-1.63,4.09-1.64-4.09Zm-1.63,6.78,1.83,4.59-13,32.51H539Zm-16.34,38.1-1,2.53-2-2.53Zm-1.91,3h-3l1-2.49Zm-1.59,4h-3l1-2.52Zm2.06,1h3l-1,2.51Zm1.09,3h-3l1-2.51Zm4.58-7h29l1.2,3H540.5Zm34.77,4L574.43,82l-1.07-2.66Zm.8.6,1,2.4h-2.81Zm.83-.6H581l-1.93,2.48Zm3.15-4h2.89l-1.91,2.46Zm3.15-4h2.85l-1.88,2.42Zm-5.15-1L561.48,26l1.84-4.59,19.61,49ZM563.32,18.69l-1.63-4.08H565Zm-1.64-5.08,1.64-4.1,1.64,4.1Zm-.73-.85-1.64-4.09h3.27Zm-4.76,0-1.64-4.09h3.28Zm-4.75,0L549.8,8.67h3.28Zm1.64,6.78H549.8l1.64-4.09Zm0,1-1.64,4.09-1.64-4.09Zm-1.64,6.78,1.84,4.59-15.4,38.44h-3.67ZM531.72,73.86l-2-2.51h3Zm-.89.49h-3l1-2.51Zm.29,1-1,2.6-2-2.6Zm3.15,4-1,2.64-2.05-2.64Zm3.15,4L536.35,86l-2.08-2.68Zm2.68-4h32.18l1.2,3H538.9Zm37.83,4-2,2.52-1-2.52Zm4-3.56,1,2.56h-3Zm3.14-4,1,2.6h-3.06Zm3.13-4,1.06,2.63h-3.1ZM584,70.35,563.86,20l1.84-4.59,22,54.9ZM565.7,12.76l-1.64-4.09h3.28Zm-6.39-5.09L561,3.58l1.63,4.09Zm-4.76,0,1.64-4.09,1.64,4.09Zm-4.75,0,1.64-4.09,1.64,4.09Zm.9,5.94h-3.28l1.64-4.09Zm0,1-1.64,4.08-1.64-4.09Zm-1.64,6.77L550.9,26,533.13,70.35h-3.68ZM527,73.9l-2-2.55h3Zm-.91.45h-2.95l1-2.51Zm3.1,4h-2.9l1-2.47Zm3.09,4h-2.84l1-2.42Zm3.1,4h-2.79l1-2.38Zm3.17-3h35.38l1.21,3H537.3Zm40.33.47,1,2.54h-3Zm1.9,2.07-1-2.54h3Zm3.16-4-1-2.56h3.06ZM586,75.35h3.09l-2.05,2.59Zm4.2-1.4-1.05-2.6h3.12Zm-1.45-3.6L566.24,14.1l1.84-4.59,24.36,60.84ZM564.06,7.67l1.64-4.09,1.64,4.09Zm-.74-.84-1.64-4.1H565Zm-4.75,0-1.64-4.09h3.28Zm-4.75,0-1.65-4.1h3.29Zm-4.76,0-1.64-4.09h3.28Zm-.74.85h-3.27l1.63-4.09Zm0,1-1.63,4.09-1.64-4.09Zm-1.63,6.78L548.52,20,528.37,70.35H524.7Zm-24.63,58.8-2.37-2.9h3.53Zm4.31,1.1-1.13,2.81L523,75.35Zm3.15,4-1.09,2.71-2.21-2.71Zm3.15,4-1,2.63-2.14-2.63Zm3.15,4-1,2.53-2.06-2.53Zm1.08,0h38.59l1.2,3h-41Zm40.67,2.52-1-2.52h3Zm6-6L594.86,112h-3.67l-10-25Zm.72-.9,2.44-3.08L599.62,112h-3.68Zm3.16-4,2.44-3.08L604.37,112h-3.68Zm3.16-4,2.44-3.08,16,40.06h-3.67ZM544.31,9.51l1.84,4.59L523.62,70.35h-3.68ZM519.17,72.29,521.4,75v.32h.22L506.94,112h-3.68Zm3.18,3.91L524.66,79v.33h.11L511.69,112H508Zm3.19,3.91,2.47,3L516.44,112h-3.67ZM528.73,84l2.46,3-10,25h-3.68Zm3.18,3.91,2.47,3L526,112h-3.68ZM578,91l2.44-3.08L590.11,112h-3.68Z"/><path class="cls-5" d="M497.49,113l-.48-.9L497,112,470.71,62.93A27.63,27.63,0,0,0,480,52.39a41.24,41.24,0,0,0,4.46-17.85c0-10-3.29-18.07-9.79-24s-15.41-8.86-26.53-8.86H411.28V113h24.94V70.23H446l22.73,42.5.15.27h28.64Zm-1.67-1h-4.37L466.57,65.47c1.16-.62,2.27-1.28,3.31-2ZM412.28,54.92h2.87l-2.87,2.29Zm0-48.44h3.1L412.28,9Zm51.19,59.39v0l-.43.22h0l-.46.2h0l-.16.07L464,62.72,465.21,65C464.64,65.32,464.06,65.6,463.47,65.87Zm-50.24-4.51,2.84-2.23v2.23Zm12.42-50.22v2.37h-2.89ZM421.86,13V10.58h2.89Zm4.79-2.37h2.89L426.65,13Zm31.08,40.48,1.16,2.17a28.79,28.79,0,0,1-2.63,1.56Zm-2.47,3.55-1.08-2a20.12,20.12,0,0,0,2.4-1.34Zm-.85-3.27,1.33-4L457,49.71A18.21,18.21,0,0,1,454.41,51.34Zm-1-.16L452.25,49a14.44,14.44,0,0,0,2.36-1.41Zm-.64.92a23.13,23.13,0,0,1-3,1l1.79-3.3Zm-4,.72-1.24-2.33a23.72,23.72,0,0,0,2.94-.79ZM446.71,51,448,53.49a25.6,25.6,0,0,1-3.67.41Zm-3.16,2.27-1.2-2.24c1.13,0,2.22-.12,3.24-.25Zm8.93,0-1.72,3.17-1.22-2.28A23.65,23.65,0,0,0,452.48,53.31Zm1,.17,1.12,2.1a30,30,0,0,1-2.87,1.11Zm5,1.12-1.26,3.84L456,56C456.86,55.6,457.71,55.12,458.56,54.6Zm1.06,0L461,57.23c-.94.58-1.87,1.1-2.79,1.55ZM458.29,50a16.87,16.87,0,0,0,1.88-1.81l-.85,3.73Zm0-1.36.63-5.63,1.63,3A16,16,0,0,1,458.29,48.63Zm-1-.41-1.09-2a12.46,12.46,0,0,0,1.53-2ZM440.86,50.1h-4.64V22.37h5c5.59,0,10,1.2,13.14,3.56A11.13,11.13,0,0,1,459,35.4C459,45.29,453.06,50.1,440.86,50.1Zm-14.21,0V22.37h3.78V50.1Zm2.93-31.66-2.93,2.38V18.44Zm-2.11-1,3-2.46v2.46Zm4,32.66V22.37h3.79V50.1Zm3.79-28.73h-2.88L435.22,19Zm-3.79-.55V18.44h2.94Zm-1,.55h-2.87L430.43,19Zm1-6.86h3l-3,2.43Zm-4.78,2.32V14.51h2.79Zm-1,.61h-2.89l2.89-2.37Zm0,3.93h-2.91L425.65,19Zm3.84,29.73-2.84,2.25V51.1Zm.94.53v2.29h-2.9Zm1-.53h3.17l-3.17,2.49Zm3.79.78v2h-2.59Zm-5.83,6.87L426.65,61V58.75Zm-1.61-1,2.65-2.09v2.09Zm2.65,1.44v2.17h-2.68Zm1-4.27h2.71l-2.71,2.18Zm9-3.82-2.23,2.44-1.31-2.44Zm1,.36,1.32,2.46h-3.57Zm6.24,3.11-2,2.74-1.29-2.41A26.09,26.09,0,0,0,447.67,54.57Zm1.06.24,1.28,2.4a16.41,16.41,0,0,1-3.4.53Zm5.6,2-1.57,3.44-1.29-2.4A29.61,29.61,0,0,0,454.33,56.78Zm1,.14,1.36,2.55a30.67,30.67,0,0,1-3,1.1Zm5.49,1.56-1.33,4.11-1.42-2.67C459,59.5,459.92,59,460.85,58.48Zm-.67-5a24.24,24.24,0,0,0,2.27-1.83L461.51,56Zm.08-1.28,1.08-4.71,1.37,2.56A24.64,24.64,0,0,1,460.26,52.24Zm.91-7.14-2.05-3.84A18.65,18.65,0,0,0,460,35.4a12.24,12.24,0,0,0-5.05-10.27c-3.3-2.49-7.92-3.76-13.74-3.76h-5V18.44h5.14c.22,0,22.45.19,22.45,16.29A19.69,19.69,0,0,1,461.17,45.1ZM435.22,17.44H432.4l2.82-2.28Zm-3-3.93,3-2.5v2.5Zm-4.67,0,2.89-2.37v2.37Zm0-3.93,2.89-2.37V9.58Zm-4.78,0,2.89-2.37V9.58Zm-1.9,3.93H418l2.89-2.37Zm3.89,1-2.89,2.38V14.51Zm0,3.93-2.85,2.37V18.44Zm.94,3.93V50.1h-3.79V22.37ZM421.86,51.1h2.84l-2.84,2.22Zm3.79.53v2.29h-2.94Zm-1,3.29-2.79,2.21V54.92Zm-3.79,2.83h-3l3-2.37Zm-3.79,1h2.74l-2.74,2.17Zm8.58-3.34v2.34h-3Zm1-.49h3.1l-3.1,2.45Zm-1,6.44h-2.44l2.44-1.93Zm4,1-3,2.45V62.36Zm1.75-3.61h2.71l-2.71,2.19Zm3.79-1h-3l3-2.42Zm1-3.83V52l1,1.92Zm6,1-2,2.44-1.3-2.44Zm1.16.17,1.43,2.66h-3.61Zm6.16,3.25-1.9,2.58-1.16-2.17A15.2,15.2,0,0,0,449.53,58.34Zm1.15.12L452,61a13.8,13.8,0,0,1-2.77.36h-.72Zm5.78,2.17-1.56,3.6-1.39-2.59A28,28,0,0,0,456.46,60.63Zm1,.21,1.48,2.77a30.41,30.41,0,0,1-3.14,1Zm4.36-2.13,1.47,2.75A31.16,31.16,0,0,1,460.45,63Zm.51-1.16c.79-.53,1.58-1.11,2.35-1.73l-1,4.33Zm.15-1.28,1-4.7L465,54.29A29.86,29.86,0,0,1,462.48,56.27Zm1-6.94-1.71-3.19a20.44,20.44,0,0,0,3.08-11.41c0-17.09-23.22-17.29-23.45-17.29h-5.14V14.51h8.09c.25,0,24.75.23,24.75,19.86A21.52,21.52,0,0,1,463.44,49.33Zm-32-36.48V10.58h2.74Zm0-6.37h3.1L431.43,9ZM426.65,9V6.48h3.09Zm-4.79,0V6.48H425Zm-1,.56H418l2.89-2.37ZM417.07,9V6.48h3.1ZM420,10.58,417.07,13V10.58Zm0,3.93-2.89,2.38V14.51Zm.9.56v2.37H418Zm0,6.3H418L420.86,19Zm0,32.55H418l2.86-2.28Zm-1,1-2.75,2.16V54.92Zm1,4.28v2.16h-2.73Zm1-.45h3l-3,2.4Zm.08,3.61h3l-3.06,2.47V62.42Zm3.71.7v2.17H423Zm4.78,0v2.2h-2.71Zm1-.67h2.75l-2.75,2.29Zm3.79.43v2.44H432.3Zm0-1.43h-2.71l2.71-2.2Zm1-3.61V54.92h1.56l1.52,2.83Zm8.29,1-2.23,2.46L441,58.75Zm1,.36,1.2,2.25H443.5Zm3.74,3.25a13,13,0,0,0,2.36-.27l-1.93,2.7-1.3-2.43Zm3.45-.09L454.19,65a11.63,11.63,0,0,1-2,.21h-1.58Zm5.79,2.54-1.69,3-1.13-2.12A25.66,25.66,0,0,0,458.51,64.81Zm4.32-2-1.4,3.31-1.11-2.06C461.14,63.72,462,63.3,462.83,62.83Zm1.81-2.21,1.08-4.9,1.58,3A32.75,32.75,0,0,1,464.64,60.62Zm2.3-.43L465.77,64l-1.16-2.17C465.39,61.31,466.17,60.77,466.94,60.19Zm-1.22-6.59-1.79-3.34a22.43,22.43,0,0,0,6.13-15.89c0-20.62-25.49-20.86-25.75-20.86h-8.09V10.58H447c.26,0,26.82.27,26.82,23.33A26.27,26.27,0,0,1,465.72,53.6Zm-30.5-44h-2.89l2.89-2.37Zm0-4.1h-2.68l2.68-2.2Zm-4.79,0h-2.68l2.68-2.2Zm-4.78,0H423l2.69-2.2Zm-4.79,0h-2.69l2.69-2.2Zm-4.79,4.1h-2.89l2.89-2.37Zm0,3.93h-2.89l2.89-2.37Zm0,3.93h-2.89l2.89-2.37Zm3.89,1-2.89,2.38V18.44Zm.9,3.93V50.1h-3.79V22.37Zm-.93,28.73-2.86,2.28V51.1Zm-3.86,6.65h-2.86l2.86-2.29Zm-1.14,1-2.65,2.08V58.75Zm-2.65,3.61h3l-3,2.34Zm3.79.62v2.25h-2.85Zm1-.62h3.26l-3.26,2.56Zm3.79.85v2H418.3Zm-.74,3-3.05,2.46V66.23Zm4.77,0-3,2.45V66.23Zm4.66,0-2.9,2.43V66.23Zm5,0-3.08,2.46V66.23Zm1.71-4.87V58.75h3.61l1.39,2.61Zm10.23,1-2.22,2.5-1.34-2.5Zm1,.36,1.34,2.51h-3.56Zm4.73,3.51a11.44,11.44,0,0,0,1.62-.14l-2,2.7-1.37-2.56Zm2.69.09,1.18,2.21a26.83,26.83,0,0,1-3.21.57Zm4.74-1.44L460.77,67c-.82.32-1.82.67-2.93,1ZM468,60.05l1.37,2.56c-.85.57-1.74,1.11-2.68,1.63Zm0-2L466.2,54.5c4.78-4.46,8.61-11.1,8.61-20.59,0-24-27.55-24.33-27.82-24.33H436.22V6.48h13.51c.29,0,28.95.31,28.95,27C478.68,45.24,473.78,53.07,468.08,58ZM431.43,5.09V2.72h2.89Zm-4.78,0V2.72h2.89Zm-4.79,0V2.72h2.89Zm-4.79,0V2.72H420Zm-1,.39h-2.84l2.84-2.23Zm-3.79,5.1h2.9L412.28,13Zm0,3.93h2.9l-2.9,2.37Zm0,3.93h2.9l-2.9,2.38Zm3.79.56v2.37h-2.89Zm0,34.92h-2.86l2.86-2.28Zm-3.79,12.31h3.13l-3.13,2.47Zm3.79.76v2.24h-2.84Zm4.79-.07v2.31H418Zm4.79,0v2.32h-2.88Zm4.78-.12v2.44h-2.91Zm4.79.15v2.29h-2.86Zm1-1.71V62.36h5.52l0,0,1.52,2.84Zm12.34,1-2.2,2.61L445,66.23Zm1,.39,1.39,2.6h-3.59Zm7,2.82L479.32,112H475L452.56,70.13A25.16,25.16,0,0,0,456.55,69.44Zm1-.26a35.9,35.9,0,0,0,3.7-1.25L484.82,112h-4.37Zm4.63-1.63c.73-.31,1.17-.53,1.26-.57.77-.34,1.51-.69,2.24-1.06L490.32,112H486ZM474,11.32c6.28,5.7,9.46,13.51,9.46,23.22A40.27,40.27,0,0,1,479.07,52,26.64,26.64,0,0,1,470.24,62l-1.69-3.14c6-5.1,11.13-13.2,11.13-25.42,0-27.68-29.65-28-29.95-28H436.22V2.72h11.89C459,2.72,467.67,5.61,474,11.32Zm-58.84-8.6L412.28,5V2.72Zm-2.85,19.65h3.79V50.1h-3.79Zm2.87,28.73-2.87,2.28V51.1ZM412.28,112V70.23h3.79V112Zm4.79,0V70.23h3.79V112Zm4.79,0V70.23h3.79V112Zm4.79,0V70.23h3.78V112Zm8.57,0h-3.79V70.23h3.79Zm1-42.77v-3h7.61l1.61,3ZM469.44,112,447.11,70.23h3.57l.78,0L473.81,112Z"/><path class="cls-3" d="M196,1.76H172.17V68.53c0,6.84-1.76,12.19-5.24,15.91S158.5,90,152.18,90a17.26,17.26,0,0,1-13-5.24h0l-.48-.48c-3.26-3.68-4.93-8.58-4.93-14.6V1.76H109.35V74.83a38.91,38.91,0,0,0,5.76,20l.09.34.27.31.08.08c.55.89,1.14,1.78,1.76,2.66l.36.65.19.2,0,0c.65.88,1.34,1.77,2.06,2.64l.36.4,0,0,.56.57a32.08,32.08,0,0,0,10.2,7.47l.64.3c.92.42,1.89.79,2.87,1.14l.5.17a56.94,56.94,0,0,0,18.47,2.74,50,50,0,0,0,17.13-2.9l1-.34,0,0c.72-.29,1.45-.57,2.15-.89v0l1.11-.57c.49-.24,1-.46,1.47-.72a37.3,37.3,0,0,0,5.06-3.24h.06v0a34.09,34.09,0,0,0,6.77-6.91l.41-.52h0c.64-.92,1.24-1.88,1.8-2.86l.39-.55-.07-.06c.27-.5.55-1,.8-1.52q1.1-2.27,1.93-4.52h0v-.07c.05-.13.21-.45.21-.45l0,0c.37-1,.7-2,1-3.06l.19-.68a40.76,40.76,0,0,0,1.58-10.95V1.76Zm-5.18,1V70.65a44.17,44.17,0,0,1-2.06,13.63h-4.27a49.18,49.18,0,0,0,2.64-16.63V2.76ZM138,106.24c-.65-.24-1.28-.48-1.9-.74l1.9-2.17Zm-5.93-9V92.28a22.15,22.15,0,0,0,2.33,2v.53Zm2.33-1V99c-.55-.36-1.08-.74-1.6-1.13Zm-1.9-4.8,1.9-1.89v3.58A23.4,23.4,0,0,1,132.48,91.45Zm-1.43,1.43V96.5c-.64-.57-1.25-1.17-1.84-1.79ZM128.53,94c-.5-.56-1-1.15-1.44-1.76h3.21Zm3.53,4.67q1.06.81,2.19,1.53l-2.2,2.44v-4Zm3.32-3.43.13-.13a25,25,0,0,0,2.18,1.29l-2.31,2.55Zm0-5.69a18.15,18.15,0,0,0,2.31,1.87l-2.31,2.38Zm-3.6,1.22c-.54-.59-1.06-1.21-1.55-1.86h3.42Zm-2.65-1.86A25.18,25.18,0,0,0,131,91.21h-4.65l-.06-.08,2.37-2.25Zm-3.4,1.41c-.3-.46-.59-.93-.86-1.41h2.35Zm-2-1.41c.41.73.82,1.44,1.27,2.13l-.21.2h-4l2.63-2.33Zm-4,1.88c-.34-.61-.65-1.24-1-1.88h3.07Zm4,1.45L121.77,94c-.42-.59-.81-1.2-1.19-1.83Zm1.45,0h.66c.58.81,1.19,1.58,1.84,2.32h-4.93Zm5.9,5.63v.41l-2.31,2.39V95.7A29.26,29.26,0,0,0,131.05,97.84Zm0,1.85v3.19c-.64-.4-1.26-.82-1.87-1.26Zm3.33,1.83v3.21c-.67-.33-1.33-.67-2-1Zm1-.68c.77.44,1.57.84,2.39,1.22l-2.39,2.72Zm2.6.2c-.74-.35-1.45-.72-2.15-1.12L138,97.54Zm0-5.56a20.82,20.82,0,0,1-1.83-1.07L138,92.53Zm-2.34-7.16L138,86v4.32A18.63,18.63,0,0,1,135.64,88.32Zm-5.91-.44,2.42-2.3a21.9,21.9,0,0,0,1.68,2.3Zm-1.46,0H124.5l2.61-2.31c.39.76.82,1.5,1.27,2.21Zm-5.28,0h-3.65L122,85.41c.34.81.7,1.6,1.09,2.37Zm-4.16,3.33h-3.11l2.13-2C118.16,89.92,118.49,90.58,118.83,91.21Zm2,3.32H117l2.46-2.18C119.91,93.1,120.37,93.82,120.86,94.53Zm6.11,1-2.21,2.18c-.66-.7-1.29-1.42-1.89-2.18Zm.77.64v4.32a29.71,29.71,0,0,1-2.28-2Zm3.1,7.78-2.1,2.32v-3.7C129.41,103.05,130.12,103.51,130.84,104Zm3.54,1.9v.07l-2.33,2.66v-3.91C132.8,105.09,133.58,105.48,134.38,105.85Zm4.6-4.36V97a33.31,33.31,0,0,0,14.12,2.85,33.8,33.8,0,0,0,13.78-2.65v4.39l-.2.18a37.56,37.56,0,0,1-13.74,2.41A35.32,35.32,0,0,1,139,101.49Zm36.16-10.28A23.27,23.27,0,0,0,177,88.88h.21l2.46,2.33Zm4.06,1q-.76,1-1.62,2l-2-2Zm-5.39,5-2.33-2.41v-.26a22.91,22.91,0,0,0,2.33-2Zm-2.33-1,1.83,1.88c-.6.44-1.2.86-1.83,1.25Zm-1,2.68-2.18-2.41c.76-.39,1.48-.82,2.18-1.27Zm4.33-6.05L176.9,95a27.94,27.94,0,0,1-2.09,2Zm5.66-.67h.24l2.44,2.32h-4.46A29.06,29.06,0,0,0,180.47,92.21Zm-.1-1.69-1.73-1.64h2.69C181,89.44,180.7,90,180.37,90.52Zm2.12-1.63,2.63,2.32h-4C181.63,90.47,182.07,89.69,182.49,88.89Zm-8.36,1.9-1.92-1.91h3.5C175.21,89.55,174.68,90.18,174.13,90.79Zm-.7.71a22.87,22.87,0,0,1-2,1.74V89.56Zm-5.55,4.07v-3l1.88,1.94C169.16,94.86,168.53,95.23,167.88,95.57Zm2.33,4.55c-.75.42-1.53.8-2.33,1.15V97.54Zm.27,1v3.63l-2.23-2.55C169,101.9,169.76,101.54,170.48,101.15Zm3.33-2.1v3.56l-2-2.21C172.5,100,173.16,99.52,173.81,99.05Zm3.31-2.83v4.42l-2.29-2.37A26.17,26.17,0,0,0,177.12,96.22Zm1,0,2.16,2.14q-1,1-2.16,2Zm.77-.64h3.89c-.57.71-1.18,1.39-1.81,2.06Zm3.27-3.32h3c-.37.59-.74,1.16-1.14,1.72ZM184,88.88h2.94c-.29.61-.6,1.21-.92,1.79Zm-1-1c.36-.74.7-1.51,1-2.3l2.5,2.3Zm-5.37,0c.44-.71.85-1.44,1.24-2.2l2.48,2.2Zm-5.28,0a19.09,19.09,0,0,0,1.52-2.13l2.25,2.13Zm-1.88,5.89-2.14-2.21a18.49,18.49,0,0,0,2.14-1.69Zm-2.6,9.56,1.82,2.08c-.59.26-1.2.5-1.82.73Zm3.6-1.81,1.87,2.07c-.61.35-1.23.68-1.87,1Zm3.33-1.83,1.75,1.8c-.57.42-1.15.83-1.75,1.21Zm3.31,1.89a31.5,31.5,0,0,0,2.39-2.08v4.65l-2.39-2.48Zm5.94-6h.14l2.52,2.39h-4.65C182.77,97.15,183.43,96.35,184.06,95.53Zm2.22-3.28,2.57,2.28h-4Q185.59,93.42,186.28,92.25Zm1.64-3.08,2.22,2h-3.26C187.24,90.55,187.59,89.87,187.92,89.17Zm-2.75-3.89h3.26c-.27.75-.55,1.49-.86,2.21Zm-3,2-2.23-2H183C182.77,86,182.47,86.62,182.17,87.26Zm-4.25-2c-.33.66-.69,1.29-1.07,1.9l-2-1.9Zm-5,0a18.42,18.42,0,0,1-1.84,2.49l-2.5-2.49Zm-2.53,3.21a16.92,16.92,0,0,1-2.52,2.1V86ZM166.88,96l-.1.09a32.22,32.22,0,0,1-13.68,2.74A32.63,32.63,0,0,1,139,96V92.19a27.42,27.42,0,0,0,14,3.34c5.59,0,10.23-1.06,13.94-3.1ZM135,87.59a19.18,19.18,0,0,1-1.75-2.31h4.07Zm-5.9-.45c-.37-.6-.73-1.21-1.06-1.86h3Zm-5.15-.07c-.29-.58-.56-1.18-.82-1.79h2.84Zm-5.69.49c-.31-.74-.59-1.5-.86-2.28h3.34Zm-1,.32h-3.19l2.35-2.2C116.67,86.43,117,87.16,117.25,87.88Zm-4.49-.15c-.31-.81-.59-1.63-.84-2.45h3.45Zm4,1.15-2.52,2.32c-.38-.77-.73-1.54-1.05-2.32Zm1.33,3.33-2.24,2c-.39-.66-.75-1.32-1.1-2Zm2.1,3.32-2.17,2c-.47-.68-.93-1.36-1.36-2Zm1.4,0c.61.81,1.25,1.6,1.93,2.35h-4.4Zm6,6.18-2.31,2.4v-4.4C126.09,100.45,126.86,101.12,127.66,101.75Zm.08,1.36v4.12a28.74,28.74,0,0,1-2.37-1.67Zm1,4.65,2.31-2.56v3.88c-.79-.39-1.57-.79-2.31-1.23Zm5.64-.32v3.08c-.68-.26-1.34-.53-2-.81Zm1-1.13c.76.33,1.54.63,2.34.91l-2.34,2.69Zm3.6.28v-4a36.55,36.55,0,0,0,14,2.6,38.66,38.66,0,0,0,13.94-2.4v3.71a43.35,43.35,0,0,1-13.94,2.19A45,45,0,0,1,139,106.59Zm31.43-.37.07.08v3.61l-2.4-2.77C168.87,106.86,169.65,106.55,170.41,106.22Zm1.07,1.22,1.82,2.08c-.6.26-1.21.51-1.82.75Zm0-1.52v-.2c.79-.38,1.58-.78,2.33-1.22v4.08Zm5.64-3.57v3.92l-2.2-2.44C175.67,103.36,176.41,102.87,177.12,102.35Zm1,.76,2.25,2.33c-.72.53-1.47,1-2.25,1.52Zm3.39-3.57,2.66,2.64a33.2,33.2,0,0,1-2.66,2.36Zm.8-.62H187a32.76,32.76,0,0,1-2.15,2.54ZM188,97.69l-2.29-2.16h3.67Q188.67,96.64,188,97.69ZM190,94.24l-2.28-2H191l-.34.76C190.49,93.4,190.25,93.81,190,94.24Zm1.5-3.1-2.45-2.26h3.38C192.17,89.63,191.86,90.38,191.53,91.14Zm-3-3.26c.32-.74.61-1.49.88-2.26l2.42,2.26ZM186.15,2.76V67.65a47.68,47.68,0,0,1-2.72,16.63h-3.91a39.73,39.73,0,0,0,2.94-15.88V2.76Zm-4.69,0V68.4a38.08,38.08,0,0,1-3.06,15.88h-3.71c2-4,3.09-9.07,3.09-15.22V2.76Zm-8.29,65.77V2.76h3.61v66.3c0,6.12-1.07,11.13-3.17,15.06l0,0-.19.2h-5C171.54,80.43,173.17,75.15,173.17,68.53Zm-6.29,17.34v5.21l-.21.2.05,0c-3.63,2.12-8.21,3.21-13.78,3.21S142.67,93.31,139,91V86a18.31,18.31,0,0,0,13.2,5C158.34,91,163.27,89.29,166.88,85.87ZM132.78,2.76V69.71c0,5.91,1.57,10.8,4.62,14.57h-4.84c-2.28-4-3.46-9.08-3.46-15.22V2.76Zm-4.68,0v66.3c0,6.08,1.14,11.17,3.3,15.22h-3.89a37.57,37.57,0,0,1-3.1-15.88V2.76Zm-4.69,0V68.4a38.34,38.34,0,0,0,3.08,15.88h-3.84a45.17,45.17,0,0,1-2.93-16.63V2.76Zm-4.69,0V67.65a46.67,46.67,0,0,0,2.85,16.63H117a45.24,45.24,0,0,1-2-13.63V2.76Zm-8.37,0H114V70.65A47.05,47.05,0,0,0,116,84.28h-4.32a35.65,35.65,0,0,1-1.29-9.45Zm10.38,98.33c-.6-.72-1.16-1.44-1.71-2.17h4.54L121,101.43Zm1,1.09,2.66-2.64v5.19A30.55,30.55,0,0,1,121.69,102.18ZM138,108.44v3.23c-.76-.21-1.49-.43-2.21-.67Zm1,3.48v-4.27a46.37,46.37,0,0,0,14,2,44.92,44.92,0,0,0,13.94-2.12v4.23a50.4,50.4,0,0,1-13.35,1.75A60.3,60.3,0,0,1,139,111.92Zm28.9-.39v-3.09l2.08,2.4C169.27,111.08,168.58,111.32,167.88,111.53Zm8-3.29c-.36.19-.74.36-1.11.54V105.2l2.19,2.42C176.64,107.82,176.29,108,175.92,108.24Zm17-20.65-2.46-2.31h3.22C193.48,86.05,193.22,86.82,193,87.59Zm2.57-13.94A39.58,39.58,0,0,1,194,84.28h-4.16a45.2,45.2,0,0,0,2-13.63V2.76h3.68Z"/><path class="cls-8" d="M387.28,23.4v-.2h-.14c-.7-.94-1.43-1.86-2.19-2.77l-.14-.34h-.15c-1-1.15-2-2.27-3.09-3.36-.88-.87-1.78-1.7-2.7-2.5v-.08l-.19-.09c-1.05-.9-2.11-1.78-3.21-2.59v0l-.11,0a53.35,53.35,0,0,0-6.37-4l-.32-.18a58.86,58.86,0,0,0-28-6.57,53.12,53.12,0,0,0-26.14,6.6l-.39.22a53.58,53.58,0,0,0-5.69,3.69l-.77.59c-.88.67-1.74,1.38-2.59,2.11l-.8.69c-.78.7-1.56,1.41-2.31,2.16-1.13,1.11-2.19,2.26-3.21,3.44L298,21l0,0c-.6.73-1.18,1.48-1.74,2.23l-.41.58c-.64.89-1.26,1.81-1.85,2.74h0l0,.08a52.74,52.74,0,0,0-3.58,6.77l-.13.3a59.62,59.62,0,0,0-4.61,23.69c0,16.47,5.29,30.23,15.72,40.92s23.91,16.11,40,16.11,29.71-5.45,40.34-16.19,16-24.43,16-40.67C397.76,44.39,394.23,33,387.28,23.4Zm-75.12,82.25,1.94-1.93v3C313.44,106.41,312.8,106,312.16,105.65ZM370.69,9.46,369,11.11V8.51C369.59,8.82,370.14,9.13,370.69,9.46ZM302.87,24.2h4.79l.12.12c-.66.72-1.3,1.45-1.91,2.2h-.7l-2.34-2.27ZM315.1,12.11V8.83c.5.45,1.27,1.08,2.41,1.92-.8.44-1.6.91-2.38,1.39Zm.15,6.76,2.07,2c-.76.57-1.5,1.16-2.22,1.8V19ZM368,18.8v3.61c-.7-.58-1.41-1.13-2.14-1.64l2.1-2Zm-58.87,5.49c.19-.19.37-.4.57-.6s.64-.62.95-.93v3Zm4.88,59.62h-4.32l2.52-2.44C312.81,82.31,313.42,83.11,314.05,83.91Zm-.59-2.45h3.38l-1.93,1.92C314.41,82.75,313.92,82.11,313.46,81.46Zm-.07,3.45-1.88,1.87c-.52-.61-1-1.24-1.5-1.87Zm-4.7,0h.09c.59.81,1.21,1.62,1.87,2.4h-4.44Zm-3.31,1.8q-.63-.88-1.23-1.8h3.1Zm5.31,6.14c-.48-.47-1-.94-1.43-1.44-.16-.16-.3-.34-.46-.51L310.69,89Zm1-4.36.42.47c.65.69,1.31,1.34,2,2v.14l-2.41,2.3Zm2.41,1.06c-.43-.41-.85-.84-1.26-1.27-.23-.25-.44-.5-.66-.75l1.92-1.92Zm3.44-7.39v4.15c-.37-.37-.74-.75-1.1-1.15s-.6-.67-.89-1ZM311.42,58c0-10.19,2.81-18.61,8.36-25,5.39-6.24,12.55-9.4,21.29-9.4h.66c9,.17,16.41,3.33,21.85,9.41s8.23,14.29,8.23,24.36c0,10.24-2.82,18.59-8.4,24.82s-13,9.37-22,9.37a27.68,27.68,0,0,1-21.46-9.49C314.28,75.74,311.42,67.66,311.42,58Zm.84-24.66-2.53-2.45h4.38c-.62.8-1.22,1.61-1.77,2.45Zm3.32-2.67c.26-.31.51-.63.79-.93s.77-.85,1.17-1.26v4.15Zm-.64.78,1.9,1.89h-3.29C314,32.73,314.46,32.09,314.94,31.48Zm58.85-1.56h-4.05L372,27.67C372.62,28.4,373.22,29.15,373.79,29.92Zm-.6-2.4h3.73l-2.14,2.07C374.27,28.89,373.74,28.19,373.19,27.52Zm.22,3.4-2.28,2.2c-.51-.75-1.06-1.49-1.63-2.2Zm-3.33,2.45h-3.79l2.17-2.16Q369.31,32.26,370.08,33.37Zm-.51,50.54c.55-.71,1.09-1.43,1.59-2.18l2.25,2.18Zm4,1c-.54.74-1.1,1.46-1.7,2.16l-2.17-2.16Zm-5.12-1.25-2.2-2.2h3.84C369.61,82.21,369.07,82.94,368.49,83.66Zm2.75,4.16c-.22.25-.43.5-.66.74-.5.53-1,1-1.54,1.54V85.61Zm.07,1.43.13-.15v4.27l-2.2-2.1C369.94,90.62,370.64,90,371.31,89.25Zm3,1.64-.41.45c-.48.5-1,1-1.46,1.45V89Zm.37-5.76,2.24,2.18H373C373.59,86.6,374.15,85.88,374.68,85.13Zm1.2-.22h3.17c-.41.61-.84,1.22-1.28,1.82Zm-.36-1c.46-.7.9-1.42,1.32-2.15L379,83.91Zm-1-.31-2.22-2.14h3.55C375.44,82.19,375,82.9,374.53,83.6Zm-8.44-3.14c4.46-6.11,6.72-13.86,6.72-23.1s-2.29-17-6.82-23h4.77c4,6.26,6.06,14,6,23s-2.05,16.75-6,23Zm8.55-49.34c.49.73.95,1.48,1.4,2.25h-3.73Zm1.06-.2H379l-2,2C376.56,32.26,376.14,31.59,375.7,30.92Zm.18-1,1.72-1.66c.41.55.8,1.1,1.18,1.66Zm-2.73-3.4,1.64-1.64c.49.54,1,1.08,1.43,1.64Zm-.71-.71V22.47c.44.42.89.85,1.32,1.29.12.13.23.26.35.38Zm-3.4,3.4V24.6c.65.6,1.28,1.22,1.9,1.87l.39.45Zm-1,0h0c-.74-.81-1.52-1.57-2.32-2.29L368,24.71Zm-.74.67.5.57-2.21,2.21v-4.5C366.17,28.71,366.75,29.28,367.3,29.88Zm-2.71,2.76-.26-.31c-5.64-6.29-13.24-9.57-22.58-9.74s-17,3.11-22.73,9.75l-.48.58V27.55c6-5.55,13.52-8.37,22.51-8.37h.87c9.09.18,16.69,2.9,22.67,8.07Zm-47-5.52c-.65.63-1.3,1.29-1.92,2-.18.2-.35.41-.52.62v-5l2.44,2.34Zm-3.44,2.1-2.05-2c.23-.28.46-.56.71-.83.43-.48.88-.94,1.34-1.39Zm-.71.7h-3.53c.49-.68,1-1.35,1.53-2Zm-5.43,1c-.5.78-1,1.57-1.43,2.38l-2.38-2.38Zm-3.35-1c.35-.51.71-1,1.08-1.51l1.56,1.51Zm4.21,1.52,2,1.93h-3.18C308,32.72,308.41,32.07,308.82,31.44Zm8.59,2.93c-4.64,6.32-7,14.26-7,23.66,0,8.77,2.33,16.3,6.92,22.43h-4.56c-4.12-6.31-6.21-13.83-6.19-22.44,0-9.21,2.14-17.14,6.3-23.65Zm-8.53,49c-.42-.61-.81-1.24-1.2-1.87h3.14Zm-.82.58h-3.91l2.4-2.41C307,82.32,307.53,83.12,308.06,83.91Zm-3.48,3.4h-3.83L303,85C303.52,85.8,304,86.56,304.58,87.31Zm5.41,1-1.86,1.85c-.53-.61-1.05-1.22-1.55-1.85Zm-1.33,3.92c.66.69,1.34,1.35,2,2v.1l-2,2Zm3.56,2,1.88-1.79v3.36C313.46,95.32,312.83,94.79,312.22,94.25Zm1.87,2.81-2.4,2.28V95.13C312.47,95.81,313.27,96.45,314.09,97.06Zm1-11.91c.2.23.39.46.6.69.6.65,1.22,1.27,1.84,1.86v.08l-2.44,2.34ZM318.54,82l.65.76a28.67,28.67,0,0,0,22.21,9.83c9.35,0,17-3.26,22.76-9.7.15-.16.28-.34.43-.5v5.41C358.46,93.2,350.7,96,341.47,96h-.1a32.62,32.62,0,0,1-22.83-8.68Zm47,.2,2.26,2.27-.86,1c-.46.49-.93,1-1.4,1.42Zm2.13,3.93c.11-.11.21-.24.32-.36v4.39L365.81,88C366.46,87.39,367.11,86.76,367.72,86.09Zm3.15,8.12c-.6.52-1.21,1-1.83,1.51V92.46ZM369,97c.81-.62,1.62-1.26,2.4-1.93v4.29L369,97.05Zm3.4-2.83c.69-.64,1.37-1.29,2-2v4.09l-2-2Zm.71-5.84h3.41c-.51.62-1,1.23-1.57,1.84Zm7-3.24,2.24,2.24h-3.8C379.13,86.57,379.65,85.83,380.15,85.07Zm-.19-1.6-2-2h3.17C380.75,82.14,380.36,82.81,380,83.47Zm2.13-1.71,2.25,2.15h-3.47C381.29,83.2,381.7,82.48,382.09,81.76ZM372,80.46c3.86-6.36,5.82-14.08,5.84-23s-1.95-16.72-5.86-23h4.66c3.46,6.44,5.2,14.1,5.18,22.88S380,73.92,376.43,80.46Zm7.85-48.95c.39.61.75,1.23,1.1,1.86h-3Zm.82-.59h3.71L382,33.2C381.54,32.43,381.1,31.67,380.63,30.92Zm.77-1L383.33,28c.43.63.83,1.28,1.23,1.93Zm-1.41,0c-.53-.8-1.09-1.59-1.67-2.36l0,0h4Zm-2.46-3.4c-.64-.79-1.31-1.56-2-2.32h4.83L378,26.52Zm-3.06-3.46c-.66-.68-1.34-1.33-2-2v-.6l2-1.94Zm-3-1.51v4c-.69-.72-1.4-1.41-2.13-2.06l2.08-2Zm-2.4.82V19.54c.54.42,1.07.85,1.6,1.3Zm-1.21,1.16-2.24,2.14V21.78C366.35,22.33,367.1,22.91,367.83,23.53ZM364.59,26c-6-5-13.65-7.58-22.65-7.76h-.89c-8.92,0-16.46,2.7-22.51,8v-5c6.23-4.45,13.74-6.69,22.41-6.69h1c8.8.17,16.38,2.39,22.65,6.58Zm-47-.28-2.09-2c.68-.61,1.38-1.18,2.09-1.73Zm-3.44-3.3L312.64,21c.48-.42,1-.82,1.46-1.21Zm-.1,1.29q-1,1-2,2l-.33.37V21.82l.2-.17Zm-3.31-2.29c-.56.52-1.12,1.06-1.67,1.62-.12.13-.23.26-.36.39V18.56l2,1.94Zm-.7,5.15h-2.8c.42-.5.85-1,1.3-1.5Zm.45,1c-.63.77-1.21,1.56-1.78,2.37l-2.36-2.28.07-.09Zm-5.48.19c-.54.72-1.07,1.46-1.57,2.21h-.24l-2.4-2.4h4Zm-2.21,3.23c-.5.79-1,1.6-1.41,2.42l-2.55-2.44h3.94Zm.73.73,1.7,1.7h-2.71C302.79,32.8,303.13,32.23,303.48,31.67Zm8.23,2.7c-4,6.57-6.1,14.49-6.12,23.64,0,8.57,2,16.09,6,22.45h-4.5a45,45,0,0,1-5.5-22.54c0-9,1.86-16.85,5.48-23.55Zm-8.48,49c-.38-.64-.75-1.29-1.1-2h3.05Zm-.88.5h-3.56l2.33-2.23C301.51,82.43,301.92,83.18,302.35,83.91Zm-.62,1L299.67,87c-.44-.68-.85-1.37-1.25-2.06Zm2,3.4-1.87,1.8c-.45-.59-.88-1.19-1.31-1.8Zm1.43,0h.14c.61.79,1.24,1.56,1.9,2.32h-4.44Zm2.49,8.21c-.67-.63-1.34-1.28-2-2l-.25-.27,2.24-2.24Zm3-.81V99.1c-.64-.5-1.27-1-1.9-1.57Zm3.41,2.72v3.1c-.64-.41-1.27-.85-1.9-1.29Zm1-6.58c.78.69,1.59,1.33,2.42,1.94L315.1,96.1Zm.54-.86,1.9-1.83v3.4C316.9,92.06,316.26,91.54,315.64,91Zm2.9-2.37A33.62,33.62,0,0,0,341.37,97h.1c9.16,0,16.91-2.65,23.12-7.88v4.64c-6.43,4.4-14.18,6.63-23.15,6.63h-.11a38.18,38.18,0,0,1-22.79-7Zm47,.54,2.18,2.09c-.71.61-1.44,1.18-2.18,1.73ZM368,92.33V96.1L365.86,94C366.6,93.48,367.33,92.92,368,92.33Zm2.81,7.84c-.59.42-1.2.84-1.81,1.24v-3Zm1.59-4.46,1.84,1.76c-.6.52-1.22,1-1.84,1.51Zm5.24-1.46-.22.24c-.65.66-1.32,1.3-2,1.92V92Zm.16-5.94H378l2.4,2.32H375.9C376.57,89.87,377.22,89.1,377.84,88.31Zm1.56,0h3.2c-.43.61-.88,1.21-1.34,1.8Zm2-3.4h3.39c-.41.7-.85,1.4-1.3,2.09Zm1.82-3.45h3.4c-.35.73-.72,1.46-1.12,2.17Zm-5.66-1c3.45-6.59,5.2-14.35,5.22-23.21s-1.68-16.39-5-22.88h3.72a49.65,49.65,0,0,1,5.33,23.23,49.9,49.9,0,0,1-5.13,22.86Zm7.8-49.13q.57,1,1.08,2h-3.22Zm.93-.41h3.44l-2.27,2.27C387.09,32.42,386.7,31.67,386.29,30.92Zm-2.06-3.4h3.67l-2.3,2.19C385.16,29,384.7,28.24,384.23,27.52Zm-4.83-1,1.68-1.63c.42.54.84,1.08,1.24,1.63Zm-2.93-3.32,1.69-1.69c.52.55,1,1.12,1.52,1.69Zm-1-.42V18.84c.62.57,1.24,1.16,1.84,1.77l.16.17Zm-3-3.66V16.29c.54.42,1.07.85,1.6,1.3Zm-1,1-.08.07c-.76-.65-1.53-1.28-2.32-1.87v-.51l2.38-2.26h0ZM369,16.39V13.87c.52.34,1,.69,1.54,1.05Zm2.28-2.18c-.75-.53-1.51-1-2.28-1.52v-.17l2.4-2.4v4ZM368,12.05c-.79-.46-1.58-.9-2.39-1.32,1.12-.83,1.89-1.46,2.39-1.91Zm0,5.3-.13.12c-.76-.53-1.52-1-2.3-1.52L368,13.52Zm-.87.82-1.58,1.51V17.13C366.12,17.47,366.65,17.81,367.17,18.17Zm-2.58,1.72c-6.32-4.06-13.88-6.21-22.63-6.38-9.06-.16-16.9,2-23.42,6.47V16.61a41.7,41.7,0,0,1,22.3-6.22,45.86,45.86,0,0,1,23.75,6.13Zm-47-.21-1.47-1.41c.48-.35,1-.68,1.47-1Zm0-3.62c-.74.48-1.48,1-2.21,1.51l-.23-.22V13.52L317.54,16Zm-3.44.33L312.66,15c.47-.34.95-.69,1.44-1Zm0-3.58c-.74.48-1.46,1-2.18,1.51l-.23-.21v-4l2.41,2.4Zm-2.27,2.81,2.27,2.15v.71c-.74.58-1.47,1.18-2.18,1.81l-.23-.21V15.73Zm-1.14,3.5-1.45-1.39c.48-.41,1-.82,1.45-1.21Zm-3,3.66-1.84-1.84.38-.4c.48-.48,1-.94,1.46-1.4Zm-1,.42h-2.92c.45-.52.91-1,1.39-1.54Zm-2.92,3.32h-2.66c.36-.5.74-1,1.13-1.48Zm-2,3.4h-2.9c.36-.6.73-1.2,1.12-1.78Zm-1.82,3.45h-3q.46-1,1-1.89Zm6,1a50.51,50.51,0,0,0-5.34,23.55A46.24,46.24,0,0,0,306,80.46h-4.34a51.39,51.39,0,0,1-5-23,49.16,49.16,0,0,1,5.31-23.09Zm-8.24,49.2c-.37-.69-.72-1.4-1.06-2.11h3.27Zm-1,.34H293.4l2.23-2.24C296,82.43,296.35,83.17,296.74,83.91Zm1.95,3.4h-3.46l2.2-2.1Q298,86.28,298.69,87.31ZM301,90.63h-3.59l2.1-2.09C300,89.25,300.49,89.94,301,90.63Zm5.65,1-1.92,1.92c-.57-.63-1.13-1.27-1.66-1.92Zm-1.39,3.94c.67.69,1.35,1.34,2.05,2l-2.05,2Zm3.39,3.18q1,.82,2,1.59l-2,1.89Zm5.18,3.81-2.15,2.14v-3.6C312.4,101.61,313.11,102.1,313.84,102.56Zm1.26.78c.63.38,1.28.74,1.94,1.09-.89.67-1.51,1.18-1.94,1.57Zm0-5.54c.68.49,1.38,1,2.09,1.41l-2.09,2.09Zm.54-.84,1.9-1.81v3.09C316.9,97.83,316.26,97.41,315.64,97Zm2.9-2.43a39.25,39.25,0,0,0,22.78,6.81h.12c8.92,0,16.67-2.17,23.15-6.44v3.85a47.49,47.49,0,0,1-46,.09Zm47,.62,1.85,1.76c-.61.43-1.23.84-1.85,1.23ZM368,97.71v3.6l-2.16-2.16Q367,98.46,368,97.71Zm3.4,3.27v3.73l-2.23-2.23C370,102,370.71,101.5,371.44,101Zm1-.72c.69-.52,1.36-1.06,2-1.62v3.59l-2-1.93Zm5.43-4.77v4l-2.11-2C376.47,96.85,377.18,96.18,377.87,95.49Zm-1.4-3.86H380c-.54.64-1.1,1.27-1.67,1.89Zm7.17-3.07,2.07,2.07h-3.59C382.65,90,383.15,89.26,383.64,88.56Zm2.11-3.3,2.15,2h-3.41C384.93,86.63,385.35,86,385.75,85.26Zm1.84-3.5,2.14,2.15H386.5C386.88,83.2,387.24,82.49,387.59,81.76Zm-4.82-1.3a51.18,51.18,0,0,0,5-22.86,50.77,50.77,0,0,0-5.2-23.23h4.34a54.42,54.42,0,0,1,4.85,23.24,54.68,54.68,0,0,1-4.67,22.85Zm8.1-49.26c.36.72.7,1.44,1,2.17h-3.2Zm-4-1.28L389,27.84c.41.68.8,1.38,1.18,2.08Zm-2-3.4,2-2c.48.66.94,1.34,1.38,2Zm-1.33-.09c-.53-.75-1.08-1.5-1.66-2.23h3.9ZM381,23.2c-.59-.72-1.21-1.42-1.86-2.11h4.45L381.4,23.2Zm-3.12-3.44c-.77-.77-1.55-1.49-2.35-2.2l2.35-2.25Zm-3.4-3.12c-.67-.56-1.34-1.1-2-1.62v-.49l2-1.93Zm-2-3.49v-2.6c.53.36,1.05.73,1.57,1.1Zm-6.85-3.63V6.75c.71.33,1.42.67,2.11,1C367.24,8.21,366.43,8.88,365.59,9.52Zm1.75,3.29-1.75,1.75V11.83C366.18,12.14,366.76,12.47,367.34,12.81Zm-2.75,2.55a47,47,0,0,0-23.75-6,42.66,42.66,0,0,0-22.3,6.06v-4.1A47,47,0,0,1,340.74,6a52.42,52.42,0,0,1,23.85,5.33Zm-47-.8-1.69-1.69c.56-.34,1.13-.67,1.69-1Zm0-5c-.82-.63-1.62-1.28-2.08-1.72.69-.37,1.38-.72,2.08-1.06Zm-3.44,1.59-1.58-1.58c.52-.33,1-.64,1.58-.95Zm-3.41,2-1.46-1.39c.49-.36,1-.71,1.46-1Zm0,1.38v.71c-.68.54-1.36,1.09-2,1.67V12.6Zm-3,3.25c-.73.66-1.46,1.34-2.17,2l-.22.24V15.31l2.39,2.3Zm-5.25,5.42h-.67l-2.18-2.11h4.73C303.64,21.78,303,22.48,302.41,23.2Zm-.93,1.14c-.56.72-1.1,1.44-1.62,2.18h-.11l-2.33-2.32h3.91Zm-3.8,5.52-2.45-2.34h3.93C298.65,28.29,298.15,29.07,297.68,29.86Zm-1.38.06h-3.13c.36-.65.72-1.3,1.1-1.94Zm.79,1q-.66,1.2-1.26,2.43l-2.43-2.43Zm3.71,3.45a50.39,50.39,0,0,0-5.18,23.09,52.64,52.64,0,0,0,4.88,23h-4.33a56.45,56.45,0,0,1-4.54-23,54,54,0,0,1,4.82-23.08Zm-8.53,49.25q-.52-1.07-1-2.16h3.15Zm4,1.29L294.06,87c-.4-.7-.79-1.41-1.16-2.13Zm2,3.4-2.12,2.12c-.48-.7-.94-1.41-1.38-2.12Zm2,3.32-1.88,1.81c-.47-.59-.92-1.2-1.37-1.81Zm1.44,0h0c.57.72,1.16,1.42,1.77,2.11h-4Zm2.53,8.06c-.74-.67-1.46-1.36-2.17-2.08l2.17-2.17Zm3.39-1.08v3.94c-.75-.59-1.49-1.19-2.22-1.82Zm3,3.07v3c-.62-.41-1.23-.85-1.84-1.29Zm6.85,3.63v3.2c-.8-.37-1.6-.76-2.39-1.17A20.81,20.81,0,0,1,317.54,105.31Zm-2.1-2.93,2.1-2.11v3.3C316.83,103.19,316.13,102.79,315.44,102.38Zm3.1-2.38a48.64,48.64,0,0,0,46-.09v4a54.19,54.19,0,0,1-46,.11Zm47,.27,2,2c-.67.4-1.35.79-2,1.15Zm2.45,3V106c-.45-.4-1.11-.94-2-1.64C366.69,104,367.37,103.62,368,103.22Zm-.14,4q-1.14.6-2.31,1.14v-3.08A24.57,24.57,0,0,1,367.9,107.25Zm1.14-3.53,1.84,1.84c-.61.37-1.22.72-1.84,1.06Zm3.4-2,1.75,1.67c-.58.41-1.16.83-1.75,1.22Zm3-3.08,2.14,2.05c-.7.6-1.41,1.18-2.14,1.74Zm5.5-1q-1,1-2.1,2V95.44Zm.37-5.92h.06l2.18,2.11h-4.06C380.15,93.05,380.76,92.34,381.34,91.63Zm1.49,0h3.24c-.45.6-.91,1.2-1.38,1.79Zm4.1-1.2-2.13-2.12h3.55C387.89,89,387.42,89.73,386.93,90.43Zm-.1-5.52h3.5c-.39.73-.8,1.45-1.22,2.17Zm1.87-3.45H392c-.34.75-.69,1.5-1.06,2.24Zm-.5-1a55.74,55.74,0,0,0,4.57-22.85A55.58,55.58,0,0,0,388,34.37h4.3a59.24,59.24,0,0,1,4.43,23.16,59.18,59.18,0,0,1-4.34,22.93ZM382.83,23.2l1.74-1.68c.45.55.88,1.11,1.31,1.68Zm-3.26-3.11,2-1.95q.93,1,1.8,1.95Zm1.27-2.67-2,2V15.55C379.53,16.15,380.19,16.78,380.84,17.42Zm-3.39-3.09-2,1.89V12.73C376.14,13.25,376.8,13.78,377.45,14.33Zm-12.86-8V10.2A53.75,53.75,0,0,0,340.74,5a48.06,48.06,0,0,0-22.2,5.23V6.28a52.64,52.64,0,0,1,22.11-4.69A59.29,59.29,0,0,1,364.59,6.31Zm-56.93,9.91-1.83-1.75c.6-.52,1.21-1,1.83-1.51Zm-3.39-.37v3.54l-1.82-1.82.21-.21C303.19,16.84,303.73,16.34,304.27,15.85Zm-2.51,2.44,1.8,1.8h-3.48Q300.89,19.18,301.76,18.29Zm-3,3.38,1.58,1.53h-2.78C297.91,22.68,298.31,22.18,298.72,21.67Zm-2.26,3,1.87,1.87h-3.14C295.6,25.89,296,25.27,296.46,24.65Zm-4,6.72,2,2h-3C291.78,32.69,292.1,32,292.43,31.37Zm-1.39,3h4.3a55.17,55.17,0,0,0-4.71,23.08,57.58,57.58,0,0,0,4.45,23h-4.21a61.1,61.1,0,0,1-4.23-23.1A58.59,58.59,0,0,1,291,34.37Zm8.47,60.37h4.05l-2.14,2.13C300.76,96.17,300.12,95.46,299.51,94.74Zm18.58,14h.45v-3.56a55.37,55.37,0,0,0,46-.11v3.67h.16a61,61,0,0,1-46.66,0Zm63.57-11.93-2.09-2.08h4C383,95.44,382.32,96.14,381.66,96.82Z"/><path class="cls-7" d="M682.4,64A30.48,30.48,0,0,0,673,53.46a103.35,103.35,0,0,0-16.47-8.41C646.89,41.18,642,36.59,642,31.41a9.47,9.47,0,0,1,2.72-6.75,8.64,8.64,0,0,1,6.44-2.83c3.31,0,8.88,2.29,16.55,6.82l.43.25.15-.26,3-3.21h0v0l12.38-13.2-.25-.22h0l-.37-.34A42.89,42.89,0,0,0,678,7.56l-.35-.23c-.87-.58-1.75-1.13-2.65-1.64l-.18-.1A46,46,0,0,0,652,0c-10.39,0-18.92,3.13-25.37,9.29s-9.73,14.32-9.73,24.22a30.87,30.87,0,0,0,3,13.19,25.86,25.86,0,0,0,7.5,9.84c2.93,2.23,7.95,4.65,14.91,7.19,11.88,4.29,17.9,9.25,17.9,14.74,0,2.64-1.28,5.21-3.8,7.64s-5.17,3.68-7.88,3.68c-5.94,0-12.43-3.6-19.29-10.69l-.19-.19-.67.75-17,17,.71.7,0,0,0,0c11.48,11.07,23.56,16.92,34.95,16.92a39.42,39.42,0,0,0,27.43-10.63c7.71-7.06,11.62-15.49,11.62-25.06A29.46,29.46,0,0,0,682.4,64ZM656.11,46a102.42,102.42,0,0,1,16.29,8.31,29.56,29.56,0,0,1,9.13,10.2,28.41,28.41,0,0,1,3.67,14.12,32.42,32.42,0,0,1-.51,5.71h-4a25.78,25.78,0,0,0,.48-4.85C681.2,65.8,673.75,56.7,657,50c-17.43-7-19.83-13-19.83-18.45a16.73,16.73,0,0,1,.94-5.47h4.3A10.41,10.41,0,0,0,641,31.41C641,37,646.1,41.94,656.11,46Zm17.44,53.38h3.81c-.58.67-1.18,1.34-1.82,2Zm-5.21,7.87-2-2v-.32a28.94,28.94,0,0,0,2.42-1.6V107Zm-3.22,1.86-2.32-2.32v-.08c.83-.37,1.63-.77,2.4-1.19l.1.1V109Zm-3.5,1.58-2.6-2.61c.93-.28,1.84-.59,2.72-.94l.06.07v3.4Zm-35.91-4v-4c.82.57,1.66,1.12,2.51,1.63l-2.4,2.4Zm-3.5-2.3v-4.3c.83.68,1.66,1.33,2.5,2v.13l-2.34,2.33Zm.13-17.21,1.17,1.14c.39.39.79.79,1.2,1.18v.13l-2.49,2.49h0V87.3Zm-.1,6.33c.81.78,1.63,1.54,2.47,2.29h0l-2.5,2.5V93.53Zm6.46-1.69h0c-.87-.74-1.69-1.51-2.49-2.28l2.5-2.5Zm-.72.72-2.27,2.27V90.46C626.44,91.16,627.19,91.85,628,92.53Zm-2.27-3.91V83.88c.82.73,1.62,1.5,2.43,2.3Zm-1,5.82c-.6-.54-1.18-1.09-1.77-1.64L624.71,91Zm-3.5,3.49c-.6-.52-1.19-1.06-1.79-1.61l1.79-1.79Zm0,1.33v0l-2.42,2.42V97.1C619.6,97.85,620.4,98.57,621.21,99.26Zm3.5-2v3.55c-.67-.5-1.33-1-2-1.56Zm1-.55c.8.69,1.63,1.36,2.48,2l-2.48,2.49Zm.46-.92,2.53-2.53V97.8C627.83,97.14,627,96.46,626.17,95.75ZM629.7,94a28.34,28.34,0,0,0,18.37,6.25,29.71,29.71,0,0,0,9.74-1.5v3.75A32.7,32.7,0,0,1,648,103.9c-8.3,0-13.79-2.23-18.3-5.37ZM639.92,2.79l2.73,2.56c-.82.21-1.66.46-2.49.75l-.24-.23V2.79ZM678,12.87,679.71,11v3.29c-.58-.43-1.16-.85-1.74-1.25Zm-4.1,2.92-2-1.22L674,12.39v3.29Zm-.7.74-1.27,1.36V15.73ZM670.9,19l-.07.07-2-1.19,2-2.17Zm-.76.81-1.75,1.87V18.72Zm1.76-.42,2.07-2.2V21l-2.07-1.3ZM675,16.08l2-2.14v3.82l-2-1.28Zm0-1.46V12.23l1.37.92Zm-3.07-1.48V10.39c.55.31,1.11.64,1.66,1Zm-1,.81c-.72-.44-1.41-.84-2.07-1.21l2.07-2.21Zm-.55.84-2,2.1V13.64C669,14,669.67,14.38,670.35,14.79Zm-3,2.2c-6.5-3.65-10.31-4.52-16.61-4.52a23.37,23.37,0,0,0-7.11,1.1V10.32a31,31,0,0,1,7.62-1c7,0,10.69.83,16.1,3.76Zm-35.74-1.52h-3.5c.49-.62,1-1.19,1.54-1.74h.1Zm5-6.81,2.26,2.11V11a23,23,0,0,0-2.29,1.24V8.67Zm1-.47c.43-.19.86-.38,1.29-.55V9.4Zm-.85,10.7A15.09,15.09,0,0,1,638.92,17v3.87Zm-3.4,2.65-2.21-2.07H635a15.63,15.63,0,0,0-1.34,2.07Zm1.49-3.07h-3.58a18.41,18.41,0,0,1,1.53-1.92Zm4-2.62a17.41,17.41,0,0,0-2.29,1.84v-4l2.29,2.14Zm-1.63-2.92c.54-.31,1.08-.61,1.63-.87v2.4Zm-1.66,4.89-2.12-2a20.84,20.84,0,0,1,2.12-1.8Zm-5.44.65h-.08l-2.14-2h3.71A18.88,18.88,0,0,0,630.19,18.47Zm-1.75,3.07-2.21-2.07h3.36a20,20,0,0,0-1,2.07Zm1.89-1.5,1.59,1.5h-2.34Q629.92,20.76,630.33,20Zm9.59-8.33L642.4,14a18.25,18.25,0,0,0-2.48,1.2Zm-4.29-.33-1.42-1.33c.47-.3.94-.58,1.42-.84Zm0,1.37v.12a22.06,22.06,0,0,0-2.21,1.78v-4Zm-7,5.72h-2.51c.29-.52.59-1,.91-1.49ZM627,21.54h-2.3q.3-.79.66-1.53Zm1.07,1,.08.08a23.29,23.29,0,0,0-.69,2.23L625,22.54Zm.83.78,1.85,1.73h-2.35C628.53,24.45,628.7,23.87,628.88,23.32Zm3.32,1.73-2.69-2.51H633l.14.13a18,18,0,0,0-.88,2.38Zm1.69-1.67,1.78,1.67h-2.39A17.37,17.37,0,0,1,633.89,23.38Zm2.24-3.73,2,1.89H634.8A14.5,14.5,0,0,1,636.13,19.65Zm3.79-2.88,2.28,2.14a11.69,11.69,0,0,0-2.28,2Zm.61-.8a22.11,22.11,0,0,1,2.14-1v3Zm2.14-3.05-1.81-1.7c.61-.23,1.22-.44,1.81-.62Zm-2.61-2.45-.14-.13V7.25h0l2.51,2.36C641.64,9.86,640.84,10.14,640.06,10.47Zm-1.14-3.91c-.7.27-1.39.57-2.08.89l-.21-.19V4.16l2.29,2.14Zm-3.29,1.5c-.74.39-1.47.81-2.18,1.27l0,0V5.62l2.21,2.08Zm-3.21,6.75L630.49,13v-.07a22.8,22.8,0,0,1,1.93-1.63Zm-5.54.64-1.83-1.72h3.23C627.79,14.27,627.33,14.85,626.88,15.45ZM625,18.35l-2-1.88h3.15C625.77,17.07,625.39,17.7,625,18.35Zm-1.36,3-2-1.86h2.79C624.18,20.07,623.91,20.68,623.67,21.33Zm.45,1.79,2.06,1.93h-2.61C623.73,24.38,623.92,23.74,624.12,23.12Zm-1.49,1.54-2.27-2.12h2.88C623,23.22,622.81,23.93,622.63,24.66Zm5.53,1.39H632a23.72,23.72,0,0,0-.61,5.47c0,12.65,9.91,17.07,19.51,21.35,1.46.65,2.92,1.3,4.33,2,11.32,5.43,20,10.62,20,23.8a26.81,26.81,0,0,1-.59,5.68h-4.05a24.8,24.8,0,0,0,.64-5.68c0-11.18-8-16-17.63-20.73-1.57-.78-3.28-1.51-5.09-2.29-9.79-4.2-20.89-9-20.89-23.7A29.29,29.29,0,0,1,628.16,26.05Zm42.27,70.19h3.93c-.54.72-1.12,1.43-1.73,2.12h-.08Zm.81-4.42h-4a19.9,19.9,0,0,0,1.51-2.49Zm-1.08-2.5H673a20.85,20.85,0,0,1-1,1.89Zm.89,3.5a22.82,22.82,0,0,1-1.76,2.29L667,92.82Zm-5.75,5.6L663,96.07a19,19,0,0,0,2.35-2Zm-.65.76c-.59.4-1.21.78-1.85,1.13v-3Zm1.65-5.66,2.32,2.32A23.33,23.33,0,0,1,666.3,98Zm6-.68,2.41,2.4h-4.15A24,24,0,0,0,672.25,92.84Zm1.82-3.44,2.42,2.42h-3.63A23.74,23.74,0,0,0,674.07,89.4Zm-.38-1.79-2.28-2.29h3C674.19,86.1,674,86.87,673.69,87.61Zm1.61-1.82,2.53,2.53H674.5A23.28,23.28,0,0,0,675.3,85.79ZM673,88.32h-3.75a20.52,20.52,0,0,0,1-2.75Zm-7,3.46-2.46-2.46h4.09A17.18,17.18,0,0,1,666,91.78Zm-.67.74v.07a17.19,17.19,0,0,1-2.5,2.3V90Zm-3.5,8.17-2.55-2.56a19.08,19.08,0,0,0,2.55-1.31Zm1,.77a27,27,0,0,0,2.5-1.49v4.22l-2.5-2.5Zm3.5-2.2a24.1,24.1,0,0,0,2.42-2.08v4.66l-2.42-2.42Zm7.35-6.44h2.92c-.34.61-.71,1.22-1.1,1.82Zm1.75-3.5h2.81c-.25.66-.54,1.31-.85,2Zm.85-4h3.23q-.3,1.26-.72,2.52Zm-7.81,2.29-2.28-2.29h3.1A20.81,20.81,0,0,1,668.44,87.61Zm-.7.71h-4.37a16,16,0,0,0,1.5-2.87Zm-5.94,6.6-2.49-2.49a14.39,14.39,0,0,0,2.49-2.13Zm-.44,1a19.11,19.11,0,0,1-2.55,1.32V93.34Zm-2.55,3.22,2.13,2.13q-1,.48-2.13.87Zm2.9,2.9.09.09v3.67l-2.69-2.7C660,102.76,660.87,102.4,661.71,102Zm1.09,1.09,1.66,1.66c-.54.28-1.09.56-1.66.82Zm3.5-2.27,1.71,1.71c-.55.41-1.12.79-1.71,1.15Zm3.42-3.89,2.12,2.13v.13a28.76,28.76,0,0,1-2.12,2Zm5.87-.7h.07l2.12,2.12H674C674.54,97.67,675.08,97,675.59,96.24Zm2-3.29,2.29,2.29h-3.64C676.76,94.49,677.21,93.73,677.62,93Zm1.54-3.3,2.17,2.17H678.2C678.55,91.1,678.87,90.37,679.16,89.65Zm1.19-3.71,2.39,2.38h-3.09C679.92,87.53,680.15,86.73,680.35,85.94Zm-.65-1.62h-4.06a28.28,28.28,0,0,0,.56-5.68c0-13.74-9.31-19.31-20.55-24.7-1.42-.68-2.88-1.33-4.36-2-9.3-4.14-18.91-8.43-18.91-20.43a22.94,22.94,0,0,1,.64-5.47h4.08a18,18,0,0,0-.89,5.47c0,5.78,2.48,12.13,20.46,19.38,16.27,6.55,23.53,15.37,23.53,28.57A25.13,25.13,0,0,1,679.7,84.32ZM637.13,25.05l-2.68-2.51h4.29a15.23,15.23,0,0,0-1.28,2.51ZM639.67,23l2.24,2.09h-3.36A13.59,13.59,0,0,1,639.67,23Zm.59-.82a11.09,11.09,0,0,1,2.41-2.32V24.4Zm3.41-7.55a22.68,22.68,0,0,1,7.11-1.12c6.33,0,10,.85,16.61,4.67V22c-6.22-3.56-10.24-5.35-17.11-5.35a14.65,14.65,0,0,0-6.61,1.43Zm27.23,5.83V24l-.28-.16-1.9-1.11Zm1,.44,1.46.93-1.46,1.56Zm3.07-3.2,1.41.91L675,20.08Zm3-3.38,1.45,1.05L678,16.87Zm2.74-3.41c.54.45,1.06.91,1.58,1.39L680.71,14Zm-2.74.54V8.78c.49.34,1,.7,1.46,1.07Zm-1,.95c-.61-.42-1.23-.82-1.85-1.21l1.85-2Zm-4.94-3L674,7.25v3.18C673.33,10.05,672.68,9.68,672,9.32ZM671.9,8V5.23c.59.28,1.18.58,1.75.89Zm-1,.72c-.68-.34-1.36-.67-2-1l2-2.19Zm-2.51-2v-3c.69.25,1.38.52,2.05.81Zm2,2.83-2,2.15V8.63C669.07,8.94,669.74,9.26,670.4,9.6Zm-3,2.35c-5.3-2.81-9.11-3.63-16.1-3.63a30.75,30.75,0,0,0-7.62.94V6.12a34.35,34.35,0,0,1,7.93-1,40,40,0,0,1,15.79,3Zm-24.72-3.5L641,6.88c.56-.18,1.11-.35,1.67-.51Zm0-4.46L641,2.4c.56-.15,1.13-.29,1.7-.42Zm-3.75.94-1.46-1.36c.48-.19,1-.37,1.46-.54Zm-3.29,1.39L634.26,5c.45-.24.91-.47,1.37-.69Zm-3.21,2L631,7c.47-.33.94-.65,1.43-1Zm0,1.37V10c-.66.48-1.31,1-1.93,1.53V7.93Zm-7.59,3c.56-.68,1.15-1.34,1.78-2l2.11,2Zm.61,2.74h-2.6c.32-.51.66-1,1-1.49Zm-1.75,3h-2.54c.26-.54.54-1.07.84-1.6Zm-1.26,3.07h-2.57c.21-.6.44-1.18.69-1.76Zm-.85,3.51h-2.75c.16-.7.35-1.38.55-2.05Zm1.78,1h3.8a29.08,29.08,0,0,0-.57,5.87c0,15.39,11.92,20.51,21.5,24.62,1.79.77,3.49,1.5,5,2.26,9.34,4.58,17.07,9.23,17.07,19.84a23.71,23.71,0,0,1-.67,5.68h-4.24a18.87,18.87,0,0,0,.91-5.8c0-7.8-3.86-12.31-14.22-16.66-1.22-.52-2.6-1-4.06-1.58-10-3.78-25.21-9.48-25.21-27.6A33.35,33.35,0,0,1,623.36,26.05Zm38.93,62.06-2.78-2.79h4.33A15,15,0,0,1,662.29,88.11Zm-.62.79a14.2,14.2,0,0,1-2.86,2.64V86Zm-3.86,8.71a29.58,29.58,0,0,1-28.11-4.94v-5c4,3.88,8.9,7.8,18.37,7.8a20.7,20.7,0,0,0,9.74-2.17ZM628.7,85.33c-.77-.76-1.54-1.49-2.33-2.2l2.33-2.32Zm-4,2.76-.5-.49-1.16-1.14,1.66-1.66Zm-3.5,3.07-1.3-1.23-.17-.16,1.47-1.47Zm-2-.5c.67.62,1.32,1.25,2,1.87v.59l-2.42,2.42V90.72l.24-.24Zm-1.44,4.12-1.34-1.32-.2-.2,1.54-1.54Zm-2-.61c.69.68,1.37,1.35,2,2v.37l-2.12,2.12V94.1Zm2,3.78V101c-.56-.46-1.11-.93-1.66-1.41Zm3.42,2.77v3c-.57-.41-1.13-.84-1.69-1.27Zm3.5,2.86V106c-.5-.31-1-.63-1.5-1Zm4,1.7v3.07c-.66-.34-1.32-.71-2-1.09Zm-2.36-3.34,2.36-2.36v3.89C627.9,103,627.12,102.48,626.34,101.94Zm3.36-2.2c4.53,3,10.06,5.16,18.3,5.16a33.85,33.85,0,0,0,9.81-1.4v3.87a37.4,37.4,0,0,1-9.74,1.23A36.37,36.37,0,0,1,629.7,104Zm29.11,4.45,2.16,2.16c-.7.27-1.42.51-2.16.73Zm0,5.08,1.77,1.78c-.58.2-1.18.4-1.77.58Zm4-1.08,1.37,1.36c-.45.22-.91.43-1.37.63Zm3.5-1.59,1.17,1.17c-.39.23-.78.47-1.17.69Zm3.42-2.35,1.18,1.19c-.39.29-.78.58-1.18.86Zm0-1.41v-.34c.75-.6,1.45-1.23,2.12-1.88v4h.08l-.23.18Zm7.35-6.6h2.69c-.36.52-.74,1-1.13,1.56Zm1.83-3.42h2.89c-.32.63-.66,1.25-1,1.86Zm1.35-3.5h3.08q-.41,1.11-.9,2.19Zm.9-4h3.35c-.2.9-.44,1.77-.71,2.64ZM644,24l-.35.4V19.2a13.4,13.4,0,0,1,6.61-1.57c6.8,0,10.75,1.84,17.11,5.5V27.3c-7.48-4.34-12.8-6.47-16.21-6.47A9.61,9.61,0,0,0,644,24Zm24.37,3.14V23.71l1.73,1,.32.19ZM676.74,8,675,9.85v-3C675.57,7.2,676.16,7.57,676.74,8Zm-9.35-4.54v3.7A41,41,0,0,0,651.6,4.16a35.92,35.92,0,0,0-7.93.93V1.77A43.78,43.78,0,0,1,652,1,47.71,47.71,0,0,1,667.39,3.41Zm-37.9,4.74v3.92l-2.18-2,0,0C628,9.36,628.75,8.74,629.49,8.15ZM642.7,62.79c-6.86-2.5-11.79-4.87-14.65-7a25,25,0,0,1-7.2-9.48,29.8,29.8,0,0,1-2.93-12.76,38.08,38.08,0,0,1,.71-7.46h3.7a35,35,0,0,0-.62,6.63c0,18.81,15.56,24.66,25.86,28.53,1.45.55,2.82,1.06,4,1.57,9.92,4.16,13.61,8.43,13.61,15.74a17.54,17.54,0,0,1-1,5.8h-4.93a10.2,10.2,0,0,0,2-5.85C661.26,72.52,655,67.24,642.7,62.79Zm5.88,28c3,0,5.86-1.33,8.58-4,.23-.22.43-.44.65-.67v6a19.2,19.2,0,0,1-9.74,2.33c-9.64,0-14.18-4.08-18.37-8.19V80.94C636.35,87.47,642.7,90.79,648.58,90.79Zm-35.71,5.85,1.8-1.8v3.47c-.59-.54-1.18-1.08-1.77-1.65Zm16.83,12.23v-3.69a37.37,37.37,0,0,0,18.37,4.42,38.9,38.9,0,0,0,9.74-1.19v3.51a40.51,40.51,0,0,1-10.66,1.38A39.35,39.35,0,0,1,629.7,108.87Zm44.2-5.93c-.35.31-.7.62-1.06.92v-3.79l2,2Z"/><path class="cls-4" d="M280.75,1.77H246.2l0,0v0H206.09V26.25h25v86.8h25.49V26.25h24.68V1.77ZM207.09,12.16h24v3.69h-24ZM245,16.85l-3.15,3v-3Zm-2.49-1,3.23-3.07v3.07Zm4.23-3.69h3.16l-3.16,3Zm-4.89,2.95V12.16H245Zm-1-2.28v3h-3.17ZM237,15.18v-3h3.15Zm3.9,5.37h-3.26l3.26-3.1Zm4.89-3v3h-3.15Zm1-.68h3.16l-3.16,3Zm.75-1,3.15-3v3Zm-.05-4.69,3.2-3.06v3.06Zm-.7-.72v-3h3.13Zm-1,.72h-3.16l3.16-3Zm-8,0,3.07-2.93v2.93ZM236,15.85h-3.07L236,12.92Zm4.07,1L237,19.78V16.85Zm.08,4.7-3.15,3v-3Zm4.9,0-3.15,3v-3Zm2.49-1,3.15-3v3Zm2.41,1-3.16,3v-3Zm1.74-9.39h3.16l-3.16,3Zm0-4.7h3.16l-3.16,3Zm-4.16-1,3.16-3v3Zm-5.63,4v-3H245Zm-4.9.1V7.78l.32-.32h2.93Zm-1-4.12h-3.07L236,3.52Zm0,4.7h-2.53L236,8.73Zm-.65,1-3.25,3.11V12.16Zm-.1,4.69-3.15,3v-3Zm.75.67v3h-3.16Zm0,7.73h-3.29L236,22.11Zm4.9-3v3h-3.16Zm4.89,0v3h-3.15Zm4.9,0v3h-3.15Zm1-.67h3.16l-3.16,3Zm0-4.7h3.16l-3.16,3Zm.75-1,3.15-3v3Zm0-4.69,3.15-3v3Zm0-4.7,3.17-3v3Zm-.73-.69v-3h3.16Zm-4.9,0v-3h3.16Zm-1,.67h-3.06l3.06-2.93Zm-7.42,0L240.88,4V6.46ZM237,6.39V2.77h3.78Zm-4.9-.51V2.77h3.24Zm3.78,1.58-3.78,3.63V7.46Zm-4.78,3.7h-24V7.46h24Zm-24,5.69h24v3.7h-24Zm25,4.7h3l-3,2.9Zm0,4.7H236v85.8h-3.9Zm4.9,0h3.9v85.8H237Zm4.9,0h3.89v85.8h-3.89Zm4.89,0h3.9v85.8h-3.9Zm8.8-4v3h-3.15Zm-3.15-1.67,3.15-3v3Zm4.15-3.7h23.68v3.7H256.57Zm0-1V12.16h23.68v3.69Zm0-4.69V7.46h23.68v3.7Zm0-4.7V2.77h23.68V6.46Zm-14.69-.58V3.08l.32-.31h2.93Zm-10.8-3.11V6.46h-24V2.77Zm-24,22.48v-3.7h24v3.7Zm48.48,86.8h-3.9V26.25h3.9Zm1-86.8v-3.7h23.68v3.7Z"/></g></g></svg>